# File created by Blade
# Date/Time:  Wed Jan 21 16:33:30 2015
# Frame Rate: 120.000 fps
#------------------------------------------------------
:FULLY-SPECIFIED
:DEGREES
417
root 26.319033 4.444419 -24.839782 -32.327706 101.020427 63.522647
Spine 49.712853 2.425597 4.191124
Head 49.882134 -7.637848 8.280891
LeftShoulder 1.337928 -22.131479 3.439642
LeftArm 10.633042 34.291307 -63.284173
LeftForeArm -4.281391 -0.000000 81.525034
LeftHand -4.703899 -0.000000 41.868431
LeftHandThumb1 -26.253704 0.000000 33.147579
RightShoulder -5.400428 -15.862224 5.581787
RightArm 21.696587 12.299629 65.318422
RightForeArm -30.496357 -0.000000 92.806929
RightHand -14.879111 0.000000 -14.405726
RightHandThumb1 -24.326973 -0.000000 -32.862282
LeftUpLeg -44.602138 -0.233259 -8.634433
LeftLeg 113.503571 -0.000000 -0.000000
LeftFoot 13.739691 31.625209 7.584517
LeftToeBase 23.873565 -0.000000 -0.000000
RightUpLeg -42.979141 -2.847681 -1.834451
RightLeg 121.153724 -0.000000 -0.000000
RightFoot 1.226610 -29.705890 5.723304
RightToeBase 27.915628 -0.000000 -0.000000
418
root 26.314474 4.447236 -24.843816 -32.180563 101.139555 64.193394
Spine 49.266334 2.407184 4.006176
Head 50.291699 -7.870525 8.258981
LeftShoulder 1.717660 -22.759424 2.876854
LeftArm 11.258397 33.449439 -63.422070
LeftForeArm -3.219780 -0.000000 82.287578
LeftHand -4.456218 -0.000000 41.847910
LeftHandThumb1 -26.253704 0.000000 33.147579
RightShoulder -5.185711 -15.038412 6.031385
RightArm 22.557925 12.690960 65.847095
RightForeArm -31.153648 -0.000000 94.067859
RightHand -14.742251 0.000000 -14.683365
RightHandThumb1 -24.326973 -0.000000 -32.862282
LeftUpLeg -44.049062 -0.158674 -8.481246
LeftLeg 113.319227 -0.000000 -0.000000
LeftFoot 13.927768 31.634013 7.669385
LeftToeBase 23.708065 -0.000000 -0.000000
RightUpLeg -42.425409 -2.815291 -1.747597
RightLeg 121.136037 -0.000000 -0.000000
RightFoot 1.100161 -29.740486 5.598217
RightToeBase 28.353139 -0.000000 -0.000000
419
root 26.311150 4.457508 -24.851365 -31.712565 101.344094 65.271944
Spine 48.899433 2.247815 3.853715
Head 50.628234 -8.133573 8.191751
LeftShoulder 2.027459 -23.031129 2.365257
LeftArm 12.274412 32.545077 -63.410880
LeftForeArm -2.677948 -0.000000 83.153741
LeftHand -4.046728 -0.000000 42.155188
LeftHandThumb1 -26.253704 0.000000 33.147579
RightShoulder -4.873388 -14.161145 6.439453
RightArm 23.262067 12.957591 66.345057
RightForeArm -31.862194 -0.000000 95.259108
RightHand -14.214605 -0.000000 -15.212460
RightHandThumb1 -24.326973 -0.000000 -32.862282
LeftUpLeg -43.412862 -0.199788 -8.296198
LeftLeg 113.207484 -0.000000 -0.000000
LeftFoot 13.965108 31.543559 7.714375
LeftToeBase 23.801919 -0.000000 -0.000000
RightUpLeg -41.745239 -3.002729 -1.644880
RightLeg 121.095259 -0.000000 -0.000000
RightFoot 0.952496 -29.886782 5.963932
RightToeBase 27.857237 -0.000000 -0.000000
420
root 26.310923 4.466850 -24.865355 -31.498603 101.476849 66.052481
Spine 48.489712 2.148383 3.695657
Head 50.966460 -8.423942 8.044017
LeftShoulder 2.428898 -23.548677 1.744391
LeftArm 12.792015 31.713041 -63.686151
LeftForeArm -1.879333 -0.000000 84.104498
LeftHand -3.819248 0.000000 42.127861
LeftHandThumb1 -26.253704 0.000000 33.147579
RightShoulder -4.633923 -13.562569 6.768815
RightArm 24.214903 13.037384 66.867836
RightForeArm -32.622656 -0.000000 96.398731
RightHand -13.792014 -0.000000 -15.801119
RightHandThumb1 -24.326973 -0.000000 -32.862282
LeftUpLeg -42.815548 -0.180809 -8.149252
LeftLeg 113.108691 -0.000000 -0.000000
LeftFoot 13.958813 31.544631 7.682966
LeftToeBase 23.708144 -0.000000 -0.000000
RightUpLeg -41.137425 -3.091422 -1.556248
RightLeg 121.123764 -0.000000 -0.000000
RightFoot 0.877365 -29.899474 5.993949
RightToeBase 27.557336 -0.000000 -0.000000
421
root 26.307383 4.480978 -24.878375 -31.598146 101.679541 66.463238
Spine 48.018948 2.147835 3.453188
Head 51.313583 -8.779524 8.092562
LeftShoulder 2.909731 -23.965461 1.068996
LeftArm 13.419264 31.001466 -63.852986
LeftForeArm -1.136166 -0.000000 85.069608
LeftHand -3.074000 -0.000000 43.047077
LeftHandThumb1 -26.253704 0.000000 33.147579
RightShoulder -4.489624 -12.996113 7.258536
RightArm 25.158980 12.941386 67.187225
RightForeArm -33.043338 -0.000000 97.386043
RightHand -13.142112 -0.000000 -16.942303
RightHandThumb1 -24.326973 -0.000000 -32.862282
LeftUpLeg -42.234849 -0.197830 -8.088038
LeftLeg 112.983665 -0.000000 -0.000000
LeftFoot 13.949443 31.524399 7.671579
LeftToeBase 23.587458 -0.000000 -0.000000
RightUpLeg -40.564738 -3.186058 -1.597626
RightLeg 121.153894 -0.000000 -0.000000
RightFoot 0.760533 -29.754051 6.342696
RightToeBase 27.013462 -0.000000 -0.000000
